<svg width="196" height="18" viewBox="0 0 196 18" fill="none" xmlns="http://www.w3.org/2000/svg">
<path d="M14.28 6.152L14.136 0.487999H7.32H0.504L0.36 6.152H1.104C1.608 3.128 2.712 1.304 6.096 1.304V14.6C6.096 15.752 5.688 16.184 3.792 16.184V17H10.848V16.184C8.952 16.184 8.544 15.752 8.544 14.6V1.304C11.928 1.304 13.032 3.128 13.536 6.152H14.28ZM21.6319 17V16.184C19.6399 16.184 19.2319 15.752 19.2319 14.6V8.744H26.3359V14.6C26.3359 15.752 25.9279 16.184 24.1279 16.184V17H31.0399V16.184C29.1919 16.184 28.7839 15.752 28.7839 14.6V2.888C28.7839 1.736 29.1919 1.304 30.9439 1.304V0.487999H24.0799V1.304C25.9279 1.304 26.3359 1.736 26.3359 2.888V7.928H19.2319V2.888C19.2319 1.736 19.6399 1.304 21.5839 1.304V0.487999H14.5759V1.304C16.3759 1.304 16.7839 1.736 16.7839 2.888V14.6C16.7839 15.752 16.3759 16.184 14.5759 16.184V17H21.6319ZM45.7922 10.832H45.0482C43.9922 15.464 41.4962 16.184 38.2802 16.184C36.8162 16.184 36.3122 15.896 36.3122 15.128V8.792C38.8322 8.84 39.9122 9.08 40.2962 11.672H40.9682V5.048L40.2962 5.072C39.9122 7.688 38.8322 7.928 36.3122 7.976V2.888C36.3122 1.688 37.5122 1.304 38.9282 1.304C42.1202 1.304 43.4642 2.744 44.6162 6.392H45.3602L45.2162 0.487999H31.6322V1.304C33.4562 1.304 33.8642 1.736 33.8642 2.888V14.6C33.8642 15.752 33.4562 16.184 31.6322 16.184V17H45.6482L45.7922 10.832ZM57.312 3.032C57.312 1.64 57.672 1.304 59.808 1.304C63.552 1.304 65.424 2.984 65.424 8.768C65.424 13.256 64.56 16.184 59.808 16.184C57.672 16.184 57.312 15.848 57.312 14.456V3.032ZM52.608 1.304C54.456 1.304 54.864 1.736 54.864 2.888V14.6C54.864 15.752 54.456 16.184 52.608 16.184V17H60.576C63.984 17 68.208 14.36 68.208 8.744C68.208 3.128 63.936 0.487999 60.384 0.487999H52.608V1.304ZM74.6563 17V16.184C72.5923 16.184 72.1123 15.848 72.1123 14.936C72.1123 14.264 72.8083 12.824 73.2163 11.48H78.8803C79.5283 12.872 80.2243 14.792 80.2243 15.296C80.2243 15.992 80.1283 16.184 78.3283 16.184V17H85.0003V16.184C83.6083 16.184 83.0563 15.752 82.3363 13.904L77.0803 0.391999H76.2163L71.3683 13.64C70.8403 15.104 70.3363 16.184 68.3923 16.184V17H74.6563ZM73.5523 10.472L75.9523 4.16L78.4963 10.472H73.5523ZM84.6161 0.487999V1.304C86.5121 1.304 86.9201 1.736 86.9201 2.888V14.6C86.9201 15.752 86.5121 16.184 84.6161 16.184V17H91.6721V16.184C89.7761 16.184 89.3681 15.752 89.3681 14.6V2.888C89.3681 1.736 89.7761 1.304 91.6721 1.304V0.487999H84.6161ZM104.752 10.832H104.008C102.952 15.464 100.456 16.184 98.3923 16.184C97.1683 16.184 96.6403 15.752 96.6403 14.6V2.888C96.6403 1.736 97.0483 1.304 98.9443 1.304V0.487999H92.0803V1.304C93.7843 1.304 94.1923 1.736 94.1923 2.888V14.6C94.1923 15.752 93.7843 16.184 92.0323 16.184V17H104.608L104.752 10.832ZM104.528 1.304C105.776 1.304 106.232 1.496 106.88 2.768L110.552 9.992V14.6C110.552 15.752 110.144 16.184 108.056 16.184V17H115.592V16.184C113.408 16.184 113 15.752 113 14.6V9.992L116.384 3.584C117.272 1.904 117.584 1.304 119.312 1.304V0.487999H113.816V1.304C115.328 1.304 115.856 1.592 115.856 2.096C115.856 3.32 113 7.784 112.544 8.792C112.136 7.712 109.328 2.936 109.328 2.12C109.328 1.544 109.904 1.304 111.344 1.304V0.487999H104.528V1.304ZM126.856 14.6C126.856 15.752 126.448 16.184 124.648 16.184V17H133.792C137.848 17 139.264 14.024 139.264 12.488C139.264 9.944 137.296 8.36 133.744 8.24V8.192C136.288 8.192 138.448 6.68 138.448 4.568C138.448 2.6 136.96 0.487999 132.4 0.487999H124.648V1.304C126.448 1.304 126.856 1.736 126.856 2.888V14.6ZM133.12 8.744C135.472 8.744 136.48 10.232 136.48 12.488C136.48 14.864 135.424 16.184 131.776 16.184C129.76 16.184 129.304 15.776 129.304 14.528V8.744H133.12ZM129.304 7.928V2.504C129.304 1.832 129.52 1.304 131.488 1.304C134.416 1.304 135.664 2.264 135.664 4.76C135.664 6.632 134.896 7.928 131.68 7.928H129.304ZM154.456 13.544C154.456 14.336 154.216 15.464 153.568 15.464C151.528 15.464 152.992 9.608 148.36 8.864V8.816C151.168 8.816 154.096 7.64 154.096 4.616C154.096 2.984 152.872 0.487999 148.912 0.487999H140.248V1.304C142.072 1.304 142.48 1.736 142.48 2.888V14.6C142.48 15.752 142.072 16.184 140.248 16.184V17H147.304V16.184C145.336 16.184 144.928 15.752 144.928 14.6V8.984H145.864C148.408 8.984 149.56 9.512 149.56 13.352C149.56 15.56 150.472 17.144 152.272 17.144C154.48 17.144 155.128 15.512 155.128 13.544H154.456ZM144.928 2.696C144.928 1.712 145.576 1.304 147.64 1.304C150.472 1.304 151.504 2.768 151.504 4.952C151.504 7.472 149.848 8.168 147.688 8.168C146.584 8.168 145.624 8.144 144.928 8.12V2.696ZM162.376 0.487999H155.32V1.304C157.216 1.304 157.624 1.736 157.624 2.888V12.44C157.624 15.8 160 17.288 163.696 17.288C167.152 17.288 169.672 15.368 169.672 11.912V3.608C169.672 2.312 169.912 1.304 172.024 1.304V0.487999H166.24V1.304C168.568 1.304 168.808 2.312 168.808 3.608V11.72C168.808 14.408 167.488 16.472 163.984 16.472C161.344 16.472 160.072 15.08 160.072 12.512V2.888C160.072 1.736 160.48 1.304 162.376 1.304V0.487999ZM172.256 0.487999V1.304C174.152 1.304 174.56 1.736 174.56 2.888V14.6C174.56 15.752 174.152 16.184 172.256 16.184V17H179.312V16.184C177.416 16.184 177.008 15.752 177.008 14.6V2.888C177.008 1.736 177.416 1.304 179.312 1.304V0.487999H172.256ZM179.96 0.487999V1.304C181.184 1.304 181.616 1.4 182.384 2.288V14.6C182.384 15.752 181.976 16.184 180.008 16.184V17H185.912V16.184C183.8 16.184 183.392 15.752 183.392 14.6V3.8H183.44L192.872 17.144H193.808V2.888C193.808 1.736 194.216 1.304 195.896 1.304V0.487999H190.424V1.304C192.392 1.304 192.8 1.736 192.8 2.888V12.848H192.752L184.112 0.487999H179.96Z" fill="#2D2D2D"/>
</svg>
