<svg width="665" height="84" viewBox="0 0 665 84" fill="none" xmlns="http://www.w3.org/2000/svg">
<path d="M1.80704 64V21.344H12.127L12.987 28.826H13.331C14.879 25.902 16.7424 23.752 18.921 22.376C21.0997 21 23.2784 20.312 25.457 20.312C26.661 20.312 27.6357 20.398 28.381 20.57C29.1837 20.6847 29.9004 20.8853 30.531 21.172L28.467 32.094C27.6644 31.8647 26.919 31.6927 26.231 31.578C25.543 31.4633 24.7404 31.406 23.823 31.406C22.2177 31.406 20.5264 31.9793 18.749 33.126C17.029 34.2727 15.5957 36.308 14.449 39.232V64H1.80704ZM55.1848 65.032C52.1462 65.032 49.3082 64.5447 46.6708 63.57C44.0335 62.538 41.7402 61.076 39.7908 59.184C37.8415 57.2347 36.3222 54.884 35.2328 52.132C34.1435 49.38 33.5988 46.2267 33.5988 42.672C33.5988 39.232 34.1722 36.136 35.3188 33.384C36.4655 30.5747 37.9562 28.224 39.7908 26.332C41.6828 24.3827 43.8328 22.892 46.2408 21.86C48.6488 20.828 51.1428 20.312 53.7228 20.312C56.7615 20.312 59.3988 20.828 61.6348 21.86C63.9282 22.892 65.8202 24.3253 67.3108 26.16C68.8588 27.9947 70.0055 30.1733 70.7508 32.696C71.4962 35.1613 71.8688 37.856 71.8688 40.78C71.8688 41.9267 71.8115 43.016 71.6968 44.048C71.5822 45.08 71.4675 45.854 71.3528 46.37H45.8108C46.3842 49.466 47.6455 51.7593 49.5948 53.25C51.6015 54.6833 54.0382 55.4 56.9048 55.4C59.9435 55.4 63.0108 54.454 66.1068 52.562L70.3208 60.216C68.1422 61.7067 65.7055 62.882 63.0108 63.742C60.3735 64.602 57.7648 65.032 55.1848 65.032ZM45.7248 38.028H61.1188C61.1188 35.62 60.5742 33.6707 59.4848 32.18C58.3955 30.6893 56.5608 29.944 53.9808 29.944C51.9742 29.944 50.1968 30.6033 48.6488 31.922C47.1582 33.2407 46.1835 35.276 45.7248 38.028ZM95.8467 82.146C93.324 82.146 90.9734 81.9167 88.7947 81.458C86.6734 81.0567 84.7814 80.426 83.1187 79.566C81.5134 78.706 80.252 77.588 79.3347 76.212C78.4174 74.836 77.9587 73.202 77.9587 71.31C77.9587 67.87 79.994 65.0033 84.0647 62.71V62.366C82.918 61.6207 81.972 60.6747 81.2267 59.528C80.4814 58.3813 80.1087 56.9193 80.1087 55.142C80.1087 53.594 80.5674 52.132 81.4847 50.756C82.402 49.3227 83.5487 48.1187 84.9247 47.144V46.8C83.434 45.768 82.0867 44.306 80.8827 42.414C79.736 40.4647 79.1627 38.2287 79.1627 35.706C79.1627 33.126 79.65 30.89 80.6247 28.998C81.5994 27.0487 82.8894 25.4433 84.4947 24.182C86.1574 22.8633 88.0494 21.8887 90.1707 21.258C92.292 20.6273 94.4994 20.312 96.7927 20.312C99.3154 20.312 101.523 20.656 103.415 21.344H118.981V30.546H112.187C112.588 31.1767 112.903 31.9793 113.133 32.954C113.419 33.9287 113.563 34.9893 113.563 36.136C113.563 38.6013 113.133 40.7513 112.273 42.586C111.413 44.3633 110.209 45.854 108.661 47.058C107.17 48.2047 105.393 49.0647 103.329 49.638C101.322 50.2113 99.1434 50.498 96.7927 50.498C95.13 50.498 93.41 50.2113 91.6327 49.638C91.0594 50.0967 90.658 50.5553 90.4287 51.014C90.1994 51.4727 90.0847 52.0747 90.0847 52.82C90.0847 53.9093 90.5434 54.712 91.4607 55.228C92.4354 55.744 94.1267 56.002 96.5347 56.002H103.415C108.689 56.002 112.703 56.862 115.455 58.582C118.264 60.2447 119.669 62.9967 119.669 66.838C119.669 69.074 119.095 71.1093 117.949 72.944C116.859 74.836 115.283 76.4413 113.219 77.76C111.155 79.136 108.661 80.1967 105.737 80.942C102.813 81.7447 99.516 82.146 95.8467 82.146ZM96.7927 42.844C98.4554 42.844 99.8314 42.2707 100.921 41.124C102.067 39.92 102.641 38.114 102.641 35.706C102.641 33.47 102.067 31.7787 100.921 30.632C99.8314 29.428 98.4554 28.826 96.7927 28.826C95.13 28.826 93.7254 29.3993 92.5787 30.546C91.4894 31.6927 90.9447 33.4127 90.9447 35.706C90.9447 38.114 91.4894 39.92 92.5787 41.124C93.7254 42.2707 95.13 42.844 96.7927 42.844ZM97.8247 74.234C100.691 74.234 103.042 73.718 104.877 72.686C106.711 71.7113 107.629 70.4787 107.629 68.988C107.629 67.6693 107.055 66.7807 105.909 66.322C104.819 65.8633 103.214 65.634 101.093 65.634H96.7067C95.216 65.634 94.012 65.5767 93.0947 65.462C92.1774 65.4047 91.3747 65.29 90.6867 65.118C89.1387 66.494 88.3647 67.8987 88.3647 69.332C88.3647 70.9373 89.2247 72.1413 90.9447 72.944C92.6647 73.804 94.958 74.234 97.8247 74.234ZM127.424 64V21.344H140.066V64H127.424ZM133.702 15.066C131.581 15.066 129.832 14.464 128.456 13.26C127.08 11.9987 126.392 10.3933 126.392 8.444C126.392 6.49467 127.08 4.918 128.456 3.714C129.832 2.51 131.581 1.90799 133.702 1.90799C135.881 1.90799 137.629 2.51 138.948 3.714C140.324 4.918 141.012 6.49467 141.012 8.444C141.012 10.3933 140.324 11.9987 138.948 13.26C137.629 14.464 135.881 15.066 133.702 15.066ZM164.608 65.032C161.798 65.032 158.903 64.4873 155.922 63.398C152.998 62.3087 150.446 60.8753 148.268 59.098L153.944 51.186C155.893 52.6767 157.756 53.7947 159.534 54.54C161.311 55.2853 163.117 55.658 164.952 55.658C166.844 55.658 168.22 55.3427 169.08 54.712C169.94 54.0813 170.37 53.1927 170.37 52.046C170.37 51.358 170.112 50.756 169.596 50.24C169.137 49.6667 168.478 49.1507 167.618 48.692C166.815 48.2333 165.898 47.832 164.866 47.488C163.834 47.0867 162.773 46.6567 161.684 46.198C160.365 45.682 159.046 45.08 157.728 44.392C156.409 43.704 155.205 42.8727 154.116 41.898C153.026 40.866 152.138 39.6907 151.45 38.372C150.762 36.996 150.418 35.4193 150.418 33.642C150.418 31.6927 150.79 29.8867 151.536 28.224C152.338 26.5613 153.456 25.1567 154.89 24.01C156.323 22.8633 158.043 21.9747 160.05 21.344C162.056 20.656 164.292 20.312 166.758 20.312C170.026 20.312 172.892 20.8853 175.358 22.032C177.823 23.1213 179.973 24.354 181.808 25.73L176.132 33.298C174.584 32.1513 173.064 31.2627 171.574 30.632C170.083 30.0013 168.592 29.686 167.102 29.686C163.891 29.686 162.286 30.804 162.286 33.04C162.286 33.728 162.515 34.33 162.974 34.846C163.432 35.3047 164.034 35.7347 164.78 36.136C165.582 36.5373 166.471 36.9387 167.446 37.34C168.478 37.684 169.538 38.0567 170.628 38.458C172.004 38.974 173.351 39.576 174.67 40.264C176.046 40.8947 177.278 41.6973 178.368 42.672C179.514 43.6467 180.432 44.8507 181.12 46.284C181.808 47.66 182.152 49.3227 182.152 51.272C182.152 53.2213 181.779 55.0273 181.034 56.69C180.288 58.3527 179.17 59.8147 177.68 61.076C176.189 62.28 174.354 63.2547 172.176 64C169.997 64.688 167.474 65.032 164.608 65.032ZM205.787 65.032C203.15 65.032 200.885 64.6307 198.993 63.828C197.158 63.0253 195.639 61.9073 194.435 60.474C193.288 59.0407 192.428 57.3207 191.855 55.314C191.339 53.25 191.081 50.9853 191.081 48.52V31.234H185.233V21.86L191.769 21.344L193.231 9.992H203.723V21.344H213.957V31.234H203.723V48.348C203.723 50.756 204.21 52.5047 205.185 53.594C206.217 54.626 207.564 55.142 209.227 55.142C209.915 55.142 210.603 55.056 211.291 54.884C212.036 54.712 212.696 54.5113 213.269 54.282L215.247 63.484C214.1 63.828 212.753 64.172 211.205 64.516C209.657 64.86 207.851 65.032 205.787 65.032ZM223.143 64V21.344H233.463L234.323 28.826H234.667C236.215 25.902 238.078 23.752 240.257 22.376C242.435 21 244.614 20.312 246.793 20.312C247.997 20.312 248.971 20.398 249.717 20.57C250.519 20.6847 251.236 20.8853 251.867 21.172L249.803 32.094C249 31.8647 248.255 31.6927 247.567 31.578C246.879 31.4633 246.076 31.406 245.159 31.406C243.553 31.406 241.862 31.9793 240.085 33.126C238.365 34.2727 236.931 36.308 235.785 39.232V64H223.143ZM266.583 65.032C264.634 65.032 262.856 64.688 261.251 64C259.703 63.3693 258.384 62.4807 257.295 61.334C256.206 60.13 255.346 58.754 254.715 57.206C254.142 55.658 253.855 53.9667 253.855 52.132C253.855 47.66 255.747 44.1627 259.531 41.64C263.315 39.1173 269.421 37.426 277.849 36.566C277.734 34.674 277.161 33.1833 276.129 32.094C275.154 30.9473 273.492 30.374 271.141 30.374C269.306 30.374 267.472 30.718 265.637 31.406C263.86 32.094 261.939 33.04 259.875 34.244L255.317 25.902C258.069 24.2393 260.936 22.892 263.917 21.86C266.956 20.828 270.166 20.312 273.549 20.312C279.053 20.312 283.238 21.8887 286.105 25.042C289.029 28.138 290.491 32.9827 290.491 39.576V64H280.171L279.311 59.614H278.967C277.132 61.2193 275.212 62.538 273.205 63.57C271.198 64.5447 268.991 65.032 266.583 65.032ZM270.883 55.228C272.316 55.228 273.549 54.9127 274.581 54.282C275.613 53.6513 276.702 52.7627 277.849 51.616V44.134C273.377 44.7647 270.281 45.682 268.561 46.886C266.841 48.09 265.981 49.5233 265.981 51.186C265.981 52.562 266.411 53.594 267.271 54.282C268.188 54.9127 269.392 55.228 270.883 55.228ZM316.959 65.032C314.321 65.032 312.057 64.6307 310.165 63.828C308.33 63.0253 306.811 61.9073 305.607 60.474C304.46 59.0407 303.6 57.3207 303.027 55.314C302.511 53.25 302.253 50.9853 302.253 48.52V31.234H296.405V21.86L302.941 21.344L304.403 9.992H314.895V21.344H325.129V31.234H314.895V48.348C314.895 50.756 315.382 52.5047 316.357 53.594C317.389 54.626 318.736 55.142 320.399 55.142C321.087 55.142 321.775 55.056 322.463 54.884C323.208 54.712 323.867 54.5113 324.441 54.282L326.419 63.484C325.272 63.828 323.925 64.172 322.377 64.516C320.829 64.86 319.023 65.032 316.959 65.032ZM334.315 64V21.344H346.957V64H334.315ZM340.593 15.066C338.471 15.066 336.723 14.464 335.347 13.26C333.971 11.9987 333.283 10.3933 333.283 8.444C333.283 6.49467 333.971 4.918 335.347 3.714C336.723 2.51 338.471 1.90799 340.593 1.90799C342.771 1.90799 344.52 2.51 345.839 3.714C347.215 4.918 347.903 6.49467 347.903 8.444C347.903 10.3933 347.215 11.9987 345.839 13.26C344.52 14.464 342.771 15.066 340.593 15.066ZM377.26 65.032C374.566 65.032 371.957 64.5447 369.434 63.57C366.912 62.538 364.676 61.076 362.726 59.184C360.834 57.292 359.315 54.97 358.168 52.218C357.022 49.4087 356.448 46.2267 356.448 42.672C356.448 39.1173 357.022 35.964 358.168 33.212C359.315 30.4027 360.834 28.052 362.726 26.16C364.676 24.268 366.912 22.8347 369.434 21.86C371.957 20.828 374.566 20.312 377.26 20.312C379.955 20.312 382.535 20.828 385 21.86C387.523 22.8347 389.73 24.268 391.622 26.16C393.572 28.052 395.12 30.4027 396.266 33.212C397.413 35.964 397.986 39.1173 397.986 42.672C397.986 46.2267 397.413 49.4087 396.266 52.218C395.12 54.97 393.572 57.292 391.622 59.184C389.73 61.076 387.523 62.538 385 63.57C382.535 64.5447 379.955 65.032 377.26 65.032ZM377.26 54.798C379.84 54.798 381.79 53.7087 383.108 51.53C384.427 49.3513 385.086 46.3987 385.086 42.672C385.086 38.9453 384.427 35.9927 383.108 33.814C381.79 31.6353 379.84 30.546 377.26 30.546C374.623 30.546 372.645 31.6353 371.326 33.814C370.065 35.9927 369.434 38.9453 369.434 42.672C369.434 46.3987 370.065 49.3513 371.326 51.53C372.645 53.7087 374.623 54.798 377.26 54.798ZM407.505 64V21.344H417.825L418.685 26.762H419.029C420.864 25.042 422.871 23.5513 425.049 22.29C427.228 20.9713 429.779 20.312 432.703 20.312C437.347 20.312 440.701 21.8313 442.765 24.87C444.887 27.9087 445.947 32.1227 445.947 37.512V64H433.305V39.146C433.305 36.05 432.875 33.9287 432.015 32.782C431.213 31.6353 429.894 31.062 428.059 31.062C426.454 31.062 425.078 31.4347 423.931 32.18C422.785 32.868 421.523 33.8713 420.147 35.19V64H407.505ZM475.657 64V21.344H488.299V64H475.657ZM481.935 15.066C479.814 15.066 478.065 14.464 476.689 13.26C475.313 11.9987 474.625 10.3933 474.625 8.444C474.625 6.49467 475.313 4.918 476.689 3.714C478.065 2.51 479.814 1.90799 481.935 1.90799C484.114 1.90799 485.862 2.51 487.181 3.714C488.557 4.918 489.245 6.49467 489.245 8.444C489.245 10.3933 488.557 11.9987 487.181 13.26C485.862 14.464 484.114 15.066 481.935 15.066ZM512.841 65.032C510.031 65.032 507.136 64.4873 504.155 63.398C501.231 62.3087 498.679 60.8753 496.501 59.098L502.177 51.186C504.126 52.6767 505.989 53.7947 507.767 54.54C509.544 55.2853 511.35 55.658 513.185 55.658C515.077 55.658 516.453 55.3427 517.313 54.712C518.173 54.0813 518.603 53.1927 518.603 52.046C518.603 51.358 518.345 50.756 517.829 50.24C517.37 49.6667 516.711 49.1507 515.851 48.692C515.048 48.2333 514.131 47.832 513.099 47.488C512.067 47.0867 511.006 46.6567 509.917 46.198C508.598 45.682 507.279 45.08 505.961 44.392C504.642 43.704 503.438 42.8727 502.349 41.898C501.259 40.866 500.371 39.6907 499.683 38.372C498.995 36.996 498.651 35.4193 498.651 33.642C498.651 31.6927 499.023 29.8867 499.769 28.224C500.571 26.5613 501.689 25.1567 503.123 24.01C504.556 22.8633 506.276 21.9747 508.283 21.344C510.289 20.656 512.525 20.312 514.991 20.312C518.259 20.312 521.125 20.8853 523.591 22.032C526.056 23.1213 528.206 24.354 530.041 25.73L524.365 33.298C522.817 32.1513 521.297 31.2627 519.807 30.632C518.316 30.0013 516.825 29.686 515.335 29.686C512.124 29.686 510.519 30.804 510.519 33.04C510.519 33.728 510.748 34.33 511.207 34.846C511.665 35.3047 512.267 35.7347 513.013 36.136C513.815 36.5373 514.704 36.9387 515.679 37.34C516.711 37.684 517.771 38.0567 518.861 38.458C520.237 38.974 521.584 39.576 522.903 40.264C524.279 40.8947 525.511 41.6973 526.601 42.672C527.747 43.6467 528.665 44.8507 529.353 46.284C530.041 47.66 530.385 49.3227 530.385 51.272C530.385 53.2213 530.012 55.0273 529.267 56.69C528.521 58.3527 527.403 59.8147 525.913 61.076C524.422 62.28 522.587 63.2547 520.409 64C518.23 64.688 515.707 65.032 512.841 65.032ZM551.829 65.032C549.02 65.032 546.125 64.4873 543.143 63.398C540.219 62.3087 537.668 60.8753 535.489 59.098L541.165 51.186C543.115 52.6767 544.978 53.7947 546.755 54.54C548.533 55.2853 550.339 55.658 552.173 55.658C554.065 55.658 555.441 55.3427 556.301 54.712C557.161 54.0813 557.591 53.1927 557.591 52.046C557.591 51.358 557.333 50.756 556.817 50.24C556.359 49.6667 555.699 49.1507 554.839 48.692C554.037 48.2333 553.119 47.832 552.087 47.488C551.055 47.0867 549.995 46.6567 548.905 46.198C547.587 45.682 546.268 45.08 544.949 44.392C543.631 43.704 542.427 42.8727 541.337 41.898C540.248 40.866 539.359 39.6907 538.671 38.372C537.983 36.996 537.639 35.4193 537.639 33.642C537.639 31.6927 538.012 29.8867 538.757 28.224C539.56 26.5613 540.678 25.1567 542.111 24.01C543.545 22.8633 545.265 21.9747 547.271 21.344C549.278 20.656 551.514 20.312 553.979 20.312C557.247 20.312 560.114 20.8853 562.579 22.032C565.045 23.1213 567.195 24.354 569.029 25.73L563.353 33.298C561.805 32.1513 560.286 31.2627 558.795 30.632C557.305 30.0013 555.814 29.686 554.323 29.686C551.113 29.686 549.507 30.804 549.507 33.04C549.507 33.728 549.737 34.33 550.195 34.846C550.654 35.3047 551.256 35.7347 552.001 36.136C552.804 36.5373 553.693 36.9387 554.667 37.34C555.699 37.684 556.76 38.0567 557.849 38.458C559.225 38.974 560.573 39.576 561.891 40.264C563.267 40.8947 564.5 41.6973 565.589 42.672C566.736 43.6467 567.653 44.8507 568.341 46.284C569.029 47.66 569.373 49.3227 569.373 51.272C569.373 53.2213 569.001 55.0273 568.255 56.69C567.51 58.3527 566.392 59.8147 564.901 61.076C563.411 62.28 561.576 63.2547 559.397 64C557.219 64.688 554.696 65.032 551.829 65.032ZM591.076 65.032C586.432 65.032 583.05 63.5127 580.928 60.474C578.864 57.4353 577.832 53.2213 577.832 47.832V21.344H590.474V46.198C590.474 49.294 590.904 51.4153 591.764 52.562C592.624 53.7087 593.972 54.282 595.806 54.282C597.412 54.282 598.759 53.9093 599.848 53.164C600.938 52.4187 602.113 51.2147 603.374 49.552V21.344H616.016V64H605.696L604.75 58.066H604.492C602.658 60.2447 600.68 61.9647 598.558 63.226C596.494 64.43 594 65.032 591.076 65.032ZM647.093 65.032C644.055 65.032 641.217 64.5447 638.579 63.57C635.942 62.538 633.649 61.076 631.699 59.184C629.75 57.2347 628.231 54.884 627.141 52.132C626.052 49.38 625.507 46.2267 625.507 42.672C625.507 39.232 626.081 36.136 627.227 33.384C628.374 30.5747 629.865 28.224 631.699 26.332C633.591 24.3827 635.741 22.892 638.149 21.86C640.557 20.828 643.051 20.312 645.631 20.312C648.67 20.312 651.307 20.828 653.543 21.86C655.837 22.892 657.729 24.3253 659.219 26.16C660.767 27.9947 661.914 30.1733 662.659 32.696C663.405 35.1613 663.777 37.856 663.777 40.78C663.777 41.9267 663.72 43.016 663.605 44.048C663.491 45.08 663.376 45.854 663.261 46.37H637.719C638.293 49.466 639.554 51.7593 641.503 53.25C643.51 54.6833 645.947 55.4 648.813 55.4C651.852 55.4 654.919 54.454 658.015 52.562L662.229 60.216C660.051 61.7067 657.614 62.882 654.919 63.742C652.282 64.602 649.673 65.032 647.093 65.032ZM637.633 38.028H653.027C653.027 35.62 652.483 33.6707 651.393 32.18C650.304 30.6893 648.469 29.944 645.889 29.944C643.883 29.944 642.105 30.6033 640.557 31.922C639.067 33.2407 638.092 35.276 637.633 38.028Z" fill="#D16259" stroke="black" />
</svg>
